HIERARCHY
ROOT Root
{
  OFFSET 0.0 0.0 0.0
  CHANNELS 6 Xposition Yposition Zposition Zrotation Yrotation Xrotation
  JOINT Hips
  {
    OFFSET 0.0 100.0 0.0
    CHANNELS 6 Xposition Yposition Zposition Zrotation Yrotation Xrotation
    JOINT Spine1
    {
      OFFSET -0.013727 5.003763 -0.053727
      CHANNELS 3 Zrotation Yrotation Xrotation
      JOINT Spine2
      {
        OFFSET -0.0 7.125301 -0.029825
        CHANNELS 3 Zrotation Yrotation Xrotation
        JOINT Chest
        {
          OFFSET -1e-06 7.550063 -0.815971
          CHANNELS 3 Zrotation Yrotation Xrotation
          JOINT Neck1
          {
            OFFSET -0.181677 26.311295 -0.553348
            CHANNELS 3 Zrotation Yrotation Xrotation
            JOINT Neck2
            {
              OFFSET -3e-06 7.709397 2.302585
              CHANNELS 3 Zrotation Yrotation Xrotation
              JOINT Head
              {
                OFFSET -5e-06 6.128916 1.953709
                CHANNELS 3 Zrotation Yrotation Xrotation
                JOINT HeadEnd
                {
                  OFFSET 0.003598 16.065403 -1.835379
                  CHANNELS 3 Zrotation Yrotation Xrotation
                }
                JOINT Jaw
                {
                  OFFSET 0.002637 0.475592 3.094941
                  CHANNELS 3 Zrotation Yrotation Xrotation
                }
                JOINT LeftEye
                {
                  OFFSET 3.206381 5.380205 7.586883
                  CHANNELS 3 Zrotation Yrotation Xrotation
                }
                JOINT RightEye
                {
                  OFFSET -3.22244 5.361869 7.558234
                  CHANNELS 3 Zrotation Yrotation Xrotation
                }
              }
            }
          }
          JOINT LeftShoulder
          {
            OFFSET 1.621652 23.237164 5.113413
            CHANNELS 3 Zrotation Yrotation Xrotation
            JOINT LeftArm
            {
              OFFSET 14.919846 2e-06 -5.502326
              CHANNELS 3 Zrotation Yrotation Xrotation
              JOINT LeftForeArm
              {
                OFFSET 28.739307 0.0 -0.002588
                CHANNELS 3 Zrotation Yrotation Xrotation
                JOINT LeftHand
                {
                  OFFSET 27.093981 -1e-06 0.002609
                  CHANNELS 3 Zrotation Yrotation Xrotation
                  JOINT LeftHandThumb1
                  {
                    OFFSET 2.276482 -1.392045 3.191413
                    CHANNELS 3 Zrotation Yrotation Xrotation
                    JOINT LeftHandThumb2
                    {
                      OFFSET 4.012836 -1.828127 1.641654
                      CHANNELS 3 Zrotation Yrotation Xrotation
                      JOINT LeftHandThumb3
                      {
                        OFFSET 2.798515 0.0 -3e-06
                        CHANNELS 3 Zrotation Yrotation Xrotation
                        JOINT LeftHandThumbEnd
                        {
                          OFFSET 3.180793 -4e-06 4e-06
                          CHANNELS 3 Zrotation Yrotation Xrotation
                        }
                      }
                    }
                  }
                  JOINT LeftHandIndex1
                  {
                    OFFSET 3.247555 -0.531998 2.296169
                    CHANNELS 3 Zrotation Yrotation Xrotation
                    JOINT LeftHandIndex2
                    {
                      OFFSET 6.364578 0.01206 0.1786
                      CHANNELS 3 Zrotation Yrotation Xrotation
                      JOINT LeftHandIndex3
                      {
                        OFFSET 3.662364 0.0 0.0
                        CHANNELS 3 Zrotation Yrotation Xrotation
                        JOINT LeftHandIndex4
                        {
                          OFFSET 2.329242 4e-06 4e-06
                          CHANNELS 3 Zrotation Yrotation Xrotation
                          JOINT LeftHandIndexEnd
                          {
                            OFFSET 2.759615 -0.180537 -0.113024
                            CHANNELS 3 Zrotation Yrotation Xrotation
                          }
                        }
                      }
                    }
                  }
                  JOINT LeftHandMiddle1
                  {
                    OFFSET 3.163495 0.240981 1.000332
                    CHANNELS 3 Zrotation Yrotation Xrotation
                    JOINT LeftHandMiddle2
                    {
                      OFFSET 6.19078 -0.259278 -1.002548
                      CHANNELS 3 Zrotation Yrotation Xrotation
                      JOINT LeftHandMiddle3
                      {
                        OFFSET 4.35652 -4e-06 -1e-06
                        CHANNELS 3 Zrotation Yrotation Xrotation
                        JOINT LeftHandMiddle4
                        {
                          OFFSET 2.996877 -8e-06 0.0
                          CHANNELS 3 Zrotation Yrotation Xrotation
                          JOINT LeftHandMiddleEnd
                          {
                            OFFSET 2.304287 -0.294569 -0.031741
                            CHANNELS 3 Zrotation Yrotation Xrotation
                          }
                        }
                      }
                    }
                  }
                  JOINT LeftHandRing1
                  {
                    OFFSET 2.882643 -0.053652 -0.322543
                    CHANNELS 3 Zrotation Yrotation Xrotation
                    JOINT LeftHandRing2
                    {
                      OFFSET 5.854541 -0.486202 -1.373841
                      CHANNELS 3 Zrotation Yrotation Xrotation
                      JOINT LeftHandRing3
                      {
                        OFFSET 4.350578 0.0 3e-06
                        CHANNELS 3 Zrotation Yrotation Xrotation
                        JOINT LeftHandRing4
                        {
                          OFFSET 2.651321 7e-06 2e-06
                          CHANNELS 3 Zrotation Yrotation Xrotation
                          JOINT LeftHandRingEnd
                          {
                            OFFSET 1.936105 0.077687 -7.1e-05
                            CHANNELS 3 Zrotation Yrotation Xrotation
                          }
                        }
                      }
                    }
                  }
                  JOINT LeftHandPinky1
                  {
                    OFFSET 2.8655 -0.310005 -1.600378
                    CHANNELS 3 Zrotation Yrotation Xrotation
                    JOINT LeftHandPinky2
                    {
                      OFFSET 5.087849 -1.331141 -1.77123
                      CHANNELS 3 Zrotation Yrotation Xrotation
                      JOINT LeftHandPinky3
                      {
                        OFFSET 3.070974 4e-06 0.0
                        CHANNELS 3 Zrotation Yrotation Xrotation
                        JOINT LeftHandPinky4
                        {
                          OFFSET 1.549672 0.0 1e-06
                          CHANNELS 3 Zrotation Yrotation Xrotation
                          JOINT LeftHandPinkyEnd
                          {
                            OFFSET 1.944893 -0.157802 0.057219
                            CHANNELS 3 Zrotation Yrotation Xrotation
                          }
                        }
                      }
                    }
                  }
                }
              }
            }
          }
          JOINT RightShoulder
          {
            OFFSET -1.380118 23.180309 5.214158
            CHANNELS 3 Zrotation Yrotation Xrotation
            JOINT RightArm
            {
              OFFSET -15.037196 1.2e-05 -5.545604
              CHANNELS 3 Zrotation Yrotation Xrotation
              JOINT RightForeArm
              {
                OFFSET -28.736639 2e-06 -0.002597
                CHANNELS 3 Zrotation Yrotation Xrotation
                JOINT RightHand
                {
                  OFFSET -27.133619 -0.0 0.002613
                  CHANNELS 3 Zrotation Yrotation Xrotation
                  JOINT RightHandThumb1
                  {
                    OFFSET -2.274032 -1.383988 3.163127
                    CHANNELS 3 Zrotation Yrotation Xrotation
                    JOINT RightHandThumb2
                    {
                      OFFSET -4.011429 -1.827466 1.640914
                      CHANNELS 3 Zrotation Yrotation Xrotation
                      JOINT RightHandThumb3
                      {
                        OFFSET -2.794935 -4e-06 -3e-06
                        CHANNELS 3 Zrotation Yrotation Xrotation
                        JOINT RightHandThumbEnd
                        {
                          OFFSET -3.183852 4e-06 1e-06
                          CHANNELS 3 Zrotation Yrotation Xrotation
                        }
                      }
                    }
                  }
                  JOINT RightHandIndex1
                  {
                    OFFSET -3.253266 -0.520057 2.282866
                    CHANNELS 3 Zrotation Yrotation Xrotation
                    JOINT RightHandIndex2
                    {
                      OFFSET -6.341917 0.012471 0.178266
                      CHANNELS 3 Zrotation Yrotation Xrotation
                      JOINT RightHandIndex3
                      {
                        OFFSET -3.654871 -8e-06 -0.0
                        CHANNELS 3 Zrotation Yrotation Xrotation
                        JOINT RightHandIndex4
                        {
                          OFFSET -2.327586 0.0 1e-06
                          CHANNELS 3 Zrotation Yrotation Xrotation
                          JOINT RightHandIndexEnd
                          {
                            OFFSET -2.76179 -0.180656 -0.113078
                            CHANNELS 3 Zrotation Yrotation Xrotation
                          }
                        }
                      }
                    }
                  }
                  JOINT RightHandMiddle1
                  {
                    OFFSET -3.168106 0.246593 1.00103
                    CHANNELS 3 Zrotation Yrotation Xrotation
                    JOINT RightHandMiddle2
                    {
                      OFFSET -6.180828 -0.258836 -1.000895
                      CHANNELS 3 Zrotation Yrotation Xrotation
                      JOINT RightHandMiddle3
                      {
                        OFFSET -4.348901 0.0 -0.0
                        CHANNELS 3 Zrotation Yrotation Xrotation
                        JOINT RightHandMiddle4
                        {
                          OFFSET -3.00024 -4e-06 -2e-06
                          CHANNELS 3 Zrotation Yrotation Xrotation
                          JOINT RightHandMiddleEnd
                          {
                            OFFSET -2.30252 -0.29437 -0.031706
                            CHANNELS 3 Zrotation Yrotation Xrotation
                          }
                        }
                      }
                    }
                  }
                  JOINT RightHandRing1
                  {
                    OFFSET -2.88569 -0.067952 -0.308858
                    CHANNELS 3 Zrotation Yrotation Xrotation
                    JOINT RightHandRing2
                    {
                      OFFSET -5.854198 -0.48613 -1.373731
                      CHANNELS 3 Zrotation Yrotation Xrotation
                      JOINT RightHandRing3
                      {
                        OFFSET -4.33881 -4e-06 -0.0
                        CHANNELS 3 Zrotation Yrotation Xrotation
                        JOINT RightHandRing4
                        {
                          OFFSET -2.654903 -4e-06 4e-06
                          CHANNELS 3 Zrotation Yrotation Xrotation
                          JOINT RightHandRingEnd
                          {
                            OFFSET -1.933568 0.077527 -5.2e-05
                            CHANNELS 3 Zrotation Yrotation Xrotation
                          }
                        }
                      }
                    }
                  }
                  JOINT RightHandPinky1
                  {
                    OFFSET -2.866425 -0.342796 -1.584145
                    CHANNELS 3 Zrotation Yrotation Xrotation
                    JOINT RightHandPinky2
                    {
                      OFFSET -5.091371 -1.332055 -1.772385
                      CHANNELS 3 Zrotation Yrotation Xrotation
                      JOINT RightHandPinky3
                      {
                        OFFSET -3.062664 -4e-06 1e-06
                        CHANNELS 3 Zrotation Yrotation Xrotation
                        JOINT RightHandPinky4
                        {
                          OFFSET -1.546529 4e-06 -2e-06
                          CHANNELS 3 Zrotation Yrotation Xrotation
                          JOINT RightHandPinkyEnd
                          {
                            OFFSET -1.945119 -0.157718 0.057211
                            CHANNELS 3 Zrotation Yrotation Xrotation
                          }
                        }
                      }
                    }
                  }
                }
              }
            }
          }
        }
      }
    }
    JOINT LeftLeg
    {
      OFFSET 10.043214 -8.434526 2.595655
      CHANNELS 3 Zrotation Yrotation Xrotation
      JOINT LeftShin
      {
        OFFSET -1e-06 -43.221752 -0.802913
        CHANNELS 3 Zrotation Yrotation Xrotation
        JOINT LeftFoot
        {
          OFFSET 1e-06 -42.155094 -3.481523
          CHANNELS 3 Zrotation Yrotation Xrotation
          JOINT LeftToeBase
          {
            OFFSET 0.0 -5.059472 13.231529
            CHANNELS 3 Zrotation Yrotation Xrotation
            JOINT LeftToeEnd
            {
              OFFSET -0.009607 -1.647619 6.513017
              CHANNELS 3 Zrotation Yrotation Xrotation
            }
          }
        }
      }
    }
    JOINT RightLeg
    {
      OFFSET -10.047278 -8.29526 2.620317
      CHANNELS 3 Zrotation Yrotation Xrotation
      JOINT RightShin
      {
        OFFSET 1e-06 -43.362206 -0.805556
        CHANNELS 3 Zrotation Yrotation Xrotation
        JOINT RightFoot
        {
          OFFSET 2e-06 -42.117393 -3.478398
          CHANNELS 3 Zrotation Yrotation Xrotation
          JOINT RightToeBase
          {
            OFFSET -0.0 -5.079609 13.284196
            CHANNELS 3 Zrotation Yrotation Xrotation
            JOINT RightToeEnd
            {
              OFFSET 0.009532 -1.634378 6.460591
              CHANNELS 3 Zrotation Yrotation Xrotation
            }
          }
        }
      }
    }
  }
}
MOTION
Frames: 5
Frame Time: 0.03333333333333333
-0.050057 0.0 -0.053282 0.0 3.69148 0.0 0.0 98.852844 0.0 0.427948 0.138025 -10.319998 2.869983 0.646722 -1.660262 1.030278 3.744371 -5.648012 -2.644998 3.404558 14.389433 4.702534 0.04754 15.789617 -1.979817 -4.589287 -3.821858 -1.354945 -6.078193 2.93403 7.7e-05 -2.2e-05 6e-06 0.019073 -0.060083 -0.030343 0.728274 -3.75266 -10.634295 -0.69183 3.623587 -10.617564 -14.019926 -2.311025 9.56209 -66.402107 -1.869681 17.134649 -0.126935 -29.542856 -0.027785 6.421124 0.071504 7.379233 -5.882103 9.861283 0.70259 -10.936866 -0.360575 7.156202 0.0 8.774822 -2e-06 -16.041901 17.964695 6.068052 -1.844031 2.498503 -2.507276 -10.163594 4.678943 4.621107 -20.976013 -3e-06 3e-06 -21.226278 2.451696 -3.593998 -2e-06 -6e-06 1e-06 -1.36268 2.240798 -0.746323 -21.334902 0.584911 3.008322 -13.821206 -2e-06 3e-06 -23.887157 -0.249077 -0.839483 -59.908955 2.280684 -1.378971 -0.294024 1.679685 0.833255 -14.218199 0.093214 1.300579 -34.212032 -0.287563 0.967171 -20.033197 0.964538 1.212845 1e-06 0.0 0.0 -3.440387 0.788232 0.501656 -15.928176 -3.167308 2.999706 -6.338822 -2e-06 2e-06 -18.123436 3.648181 -4.905668 -3e-06 1e-06 -3e-06 3.570007 19.229246 8.793526 -27.253204 58.183792 -44.296513 -0.418172 15.469936 -0.396283 0.666374 -10.112041 -4.05064 2.243543 -5.255039 -3.18016 14.282899 -0.826596 6.952506 -1e-06 -12.690608 1e-06 15.241883 -17.208834 2.671447 1.665667 -1.955922 -2.878301 4.727801 -4.170588 4.993927 11.020534 3e-06 -2e-06 12.109059 -3.735717 -2.866785 1e-06 0.0 -3e-06 1.291987 -1.92855 -1.498089 14.800138 0.567468 3.865611 14.24258 -1.341736 -6.660661 19.631975 0.143924 -0.648245 49.314236 -0.837418 -6.202452 0.353028 -1.511151 -0.031939 20.222803 3.68431 2.316632 18.787287 4e-06 0.0 10.751633 -0.479869 1.397906 -1e-06 0.0 -0.0 3.273809 0.305946 -0.58011 21.486828 11.830379 2.266133 8.162933 2e-06 0.0 18.399094 -3.798987 -4.940579 3e-06 0.0 -1e-06 3.205508 -2.426414 14.519922 0.061526 -0.011002 3.598907 -7.568339 7.722164 -8.638262 1.631658 -2.065111 -0.008162 0.0 -0.0 2e-06 -5.87236 -2.237352 15.938849 -0.015659 0.254221 2.457591 7.0563 -9.059081 -8.222389 -1.411706 0.884168 0.081222 0.0 0.0 -1e-06 
-0.070972 0.0 -0.02123 0.0 3.570666 0.0 0.0 98.856781 0.0 0.403999 0.13085 -10.272169 2.873281 0.645299 -1.661502 1.017168 3.729815 -5.643463 -2.652667 3.351095 14.338777 4.786122 0.000385 15.758812 -1.962977 -4.531298 -3.812688 -1.420627 -6.016772 2.99549 7.7e-05 -2.3e-05 6e-06 0.019978 -0.063272 -0.027023 0.728719 -3.757884 -10.636181 -0.69047 3.622229 -10.618938 -13.995185 -2.352395 9.600172 -66.315498 -1.969656 17.446709 -0.113901 -29.524872 -0.023566 6.41112 0.142262 7.358304 -5.88211 9.861291 0.70259 -10.936878 -0.360574 7.156209 0.0 8.77483 -1e-06 -16.043087 17.948561 6.050875 -1.844034 2.498505 -2.507277 -10.163605 4.678948 4.62111 -20.976036 -2e-06 1e-06 -21.226299 2.451699 -3.594002 -0.0 -6e-06 1e-06 -1.362682 2.240799 -0.746324 -21.334929 0.584911 3.008324 -13.821223 -2e-06 1e-06 -23.887186 -0.249078 -0.839483 -59.872334 2.284029 -1.372469 -0.294025 1.679688 0.833256 -14.218217 0.093217 1.300579 -34.212067 -0.287562 0.96717 -20.033222 0.964539 1.212842 1e-06 0.0 -1e-06 -3.44039 0.788233 0.501656 -15.928196 -3.167311 2.999707 -6.33883 -1e-06 0.0 -18.123459 3.648185 -4.905674 -4e-06 1e-06 -2e-06 3.610626 19.170687 8.753396 -26.834917 58.121387 -44.248615 -0.300016 16.526587 -0.40675 0.259758 -10.449052 -3.417149 2.243543 -5.255039 -3.18016 14.2829 -0.826596 6.952507 -2e-06 -12.690609 1e-06 15.227391 -17.172533 2.655443 1.665667 -1.955922 -2.878301 4.727802 -4.170589 4.993928 11.020533 3e-06 -2e-06 12.109059 -3.735717 -2.866786 1e-06 0.0 -2e-06 1.291986 -1.92855 -1.49809 14.800138 0.567468 3.865611 14.242579 -1.341736 -6.660661 19.631979 0.143925 -0.648246 49.253883 -0.831019 -6.207659 0.353029 -1.511152 -0.031941 20.222803 3.68431 2.316632 18.787285 3e-06 0.0 10.751633 -0.47987 1.397908 -3e-06 0.0 -0.0 3.273808 0.305947 -0.580113 21.486828 11.830377 2.266137 8.16293 0.0 -1e-06 18.399094 -3.798987 -4.940577 2e-06 -0.0 1e-06 3.271281 -2.305954 14.553918 0.05945 -0.024535 3.497552 -7.598585 7.720732 -8.617905 1.631829 -2.060037 -0.014163 0.0 -0.0 2e-06 -5.851653 -2.231001 15.897836 -0.012866 0.250733 2.427303 7.10258 -8.963814 -8.194009 -1.413432 0.885815 0.076952 0.0 0.0 -1e-06 
-0.082939 0.0 0.011957 0.0 3.45324 0.0 0.0 98.859169 0.0 0.385593 0.124891 -10.229502 2.868863 0.645629 -1.66003 1.00355 3.709784 -5.633921 -2.66186 3.291476 14.287429 4.865721 -0.067128 15.717295 -1.952836 -4.464855 -3.806562 -1.49964 -5.948921 3.045632 7.7e-05 -2.2e-05 6e-06 0.019825 -0.063951 -0.022832 0.728157 -3.761103 -10.641164 -0.690298 3.623822 -10.622709 -13.976951 -2.390461 9.633587 -66.219917 -2.072807 17.805712 -0.081641 -29.512545 -0.024954 6.390399 0.191919 7.383231 -5.882107 9.861287 0.70259 -10.936877 -0.360576 7.156207 2e-06 8.77483 -2e-06 -16.043371 17.938957 6.047328 -1.844033 2.498505 -2.507277 -10.163604 4.678944 4.621109 -20.976034 -6e-06 4e-06 -21.226295 2.451696 -3.594 -2e-06 -6e-06 0.0 -1.362682 2.240799 -0.746323 -21.334925 0.584906 3.008323 -13.821221 -6e-06 2e-06 -23.887186 -0.249084 -0.839481 -59.856083 2.286387 -1.341114 -0.294025 1.679688 0.833256 -14.218215 0.093212 1.300581 -34.212067 -0.287569 0.967172 -20.033224 0.964534 1.212845 1e-06 -0.0 -1e-06 -3.440391 0.788233 0.501656 -15.928198 -3.167314 2.999706 -6.338829 -2e-06 1e-06 -18.123455 3.648181 -4.905672 -4e-06 1e-06 -2e-06 3.651668 19.089634 8.710842 -26.172338 58.019432 -44.076805 -0.205054 17.841095 -0.412229 -0.208044 -10.801495 -2.723293 2.243541 -5.255036 -3.18016 14.282887 -0.826594 6.952504 -3e-06 -12.690601 1e-06 15.206841 -17.154022 2.638201 1.665666 -1.955921 -2.878299 4.727797 -4.170587 4.993926 11.020522 3e-06 -2e-06 12.10905 -3.735714 -2.866786 -0.0 0.0 -1e-06 1.291984 -1.928549 -1.49809 14.800123 0.567468 3.86561 14.242568 -1.341734 -6.660659 19.631962 0.143928 -0.648246 49.212433 -0.815395 -6.214912 0.353029 -1.51115 -0.031941 20.222784 3.684309 2.316631 18.787266 5e-06 0.0 10.751624 -0.479868 1.397906 -1e-06 0.0 0.0 3.273806 0.305947 -0.580111 21.486807 11.830372 2.266131 8.162925 2e-06 1e-06 18.399076 -3.798988 -4.940572 2e-06 0.0 -0.0 3.324269 -2.196722 14.58417 0.057187 -0.030396 3.405926 -7.631681 7.738461 -8.604753 1.631559 -2.063771 -0.019894 0.0 0.0 2e-06 -5.847344 -2.25704 15.85453 -0.01504 0.248507 2.409406 7.144176 -8.841831 -8.172693 -1.414622 0.889015 0.070929 0.0 0.0 -1e-06 
-0.088501 0.0 0.045912 0.0 3.339383 0.0 0.0 98.862144 0.0 0.376887 0.120573 -10.174984 2.856557 0.650967 -1.664493 0.988311 3.685234 -5.616762 -2.666461 3.238586 14.229079 4.936052 -0.136075 15.639583 -1.959852 -4.40806 -3.80227 -1.581234 -5.895722 3.077256 7.7e-05 -2.2e-05 6e-06 0.019032 -0.06482 -0.018642 0.727765 -3.764419 -10.647438 -0.691683 3.625415 -10.627797 -13.977407 -2.431618 9.657024 -66.130943 -2.176886 18.100424 -0.069472 -29.500759 -0.015545 6.359048 0.225696 7.43574 -5.882112 9.861293 0.702591 -10.936881 -0.360575 7.156212 1e-06 8.774831 1e-06 -16.029383 17.933535 6.043032 -1.844034 2.498505 -2.50728 -10.16361 4.67895 4.621112 -20.97604 -3e-06 3e-06 -21.226307 2.451698 -3.594004 -1e-06 -7e-06 1e-06 -1.362683 2.240801 -0.746322 -21.33493 0.58491 3.008326 -13.821226 -3e-06 2e-06 -23.887194 -0.249078 -0.839484 -59.836769 2.285992 -1.306248 -0.294026 1.679688 0.833256 -14.218221 0.093217 1.300581 -34.212074 -0.287561 0.967172 -20.033226 0.964539 1.212843 1e-06 -0.0 -1e-06 -3.440392 0.788234 0.501656 -15.928201 -3.167312 2.99971 -6.338831 0.0 2e-06 -18.123463 3.648186 -4.905674 -4e-06 1e-06 -2e-06 3.714839 18.973177 8.658097 -25.199982 57.857052 -43.649704 -0.189679 19.46274 -0.40366 -0.67783 -11.190187 -2.005044 2.243543 -5.255037 -3.180161 14.282896 -0.826597 6.952505 -2e-06 -12.690607 4e-06 15.185425 -17.156116 2.617285 1.665667 -1.955922 -2.8783 4.7278 -4.170589 4.993926 11.020531 2e-06 -3e-06 12.109058 -3.735717 -2.866785 -0.0 0.0 -2e-06 1.291986 -1.928548 -1.498088 14.800132 0.567468 3.865608 14.242577 -1.341735 -6.66066 19.631973 0.143926 -0.648247 49.188705 -0.795961 -6.225589 0.353029 -1.51115 -0.03194 20.222797 3.684308 2.31663 18.787275 6e-06 0.0 10.751631 -0.479869 1.397906 -2e-06 0.0 -0.0 3.273808 0.305946 -0.58011 21.48682 11.830376 2.26613 8.16293 0.0 -1e-06 18.399088 -3.798984 -4.940578 2e-06 -0.0 0.0 3.366217 -2.084876 14.603905 0.056782 -0.032971 3.303624 -7.666365 7.74317 -8.581738 1.631306 -2.077998 -0.04618 0.0 -0.0 2e-06 -5.851059 -2.285854 15.786651 -0.020243 0.255175 2.407126 7.188639 -8.734173 -8.166103 -1.415142 0.887131 0.051927 0.0 0.0 -1e-06 
-0.089685 0.0 0.073498 0.0 3.229843 0.0 0.0 98.863098 0.0 0.375618 0.117311 -10.09748 2.83592 0.657498 -1.682135 0.973432 3.664751 -5.598368 -2.667825 3.187429 14.158902 4.977283 -0.211793 15.509994 -1.959548 -4.317667 -3.804847 -1.658345 -5.865596 3.085935 7.7e-05 -2.3e-05 6e-06 0.0164 -0.062003 -0.016654 0.724604 -3.762741 -10.650172 -0.693999 3.629659 -10.629448 -13.997485 -2.481533 9.654845 -66.041763 -2.250521 18.358606 -0.073606 -29.508432 0.005739 6.320217 0.260575 7.391316 -5.882108 9.861286 0.702589 -10.936875 -0.360575 7.156205 1e-06 8.774827 -3e-06 -16.013374 17.922222 6.022806 -1.844033 2.498504 -2.507277 -10.163603 4.678946 4.621109 -20.97603 -4e-06 2e-06 -21.226294 2.451696 -3.594003 1e-06 -7e-06 -1e-06 -1.362682 2.240798 -0.746323 -21.334921 0.58491 3.008321 -13.821218 -3e-06 2e-06 -23.887178 -0.24908 -0.839484 -59.807884 2.280403 -1.284626 -0.294025 1.679688 0.833256 -14.218214 0.093216 1.30058 -34.212063 -0.287565 0.967167 -20.033215 0.964535 1.212841 1e-06 -0.0 0.0 -3.440389 0.788233 0.501655 -15.928192 -3.167312 2.999707 -6.338829 -1e-06 1e-06 -18.123453 3.648181 -4.905674 -3e-06 0.0 -1e-06 3.832636 18.79018 8.595413 -23.738121 57.623631 -42.741093 -0.373587 21.57777 -0.409432 -1.126007 -11.631054 -1.371436 2.243541 -5.255036 -3.180156 14.282891 -0.826595 6.952502 -2e-06 -12.690603 0.0 15.202461 -17.154488 2.584024 1.665666 -1.955921 -2.878298 4.727798 -4.170587 4.993924 11.020527 3e-06 -1e-06 12.109053 -3.735715 -2.866784 1e-06 0.0 -1e-06 1.291985 -1.92855 -1.498089 14.800129 0.567468 3.865606 14.242573 -1.341736 -6.660657 19.631968 0.143926 -0.648243 49.210117 -0.768749 -6.230129 0.353028 -1.511151 -0.031939 20.222792 3.68431 2.316631 18.787275 3e-06 -1e-06 10.75163 -0.479868 1.397906 -3e-06 0.0 0.0 3.273807 0.305947 -0.580112 21.486813 11.830371 2.266132 8.162926 2e-06 0.0 18.399086 -3.798984 -4.940577 2e-06 0.0 -2e-06 3.396401 -1.983612 14.566678 0.057373 -0.039801 3.267072 -7.711153 7.737319 -8.590712 1.629834 -2.093563 -0.089029 0.0 -0.0 2e-06 -5.862038 -2.311517 15.654781 -0.024244 0.261763 2.478114 7.236051 -8.635326 -8.122002 -1.415429 0.8838 0.01312 -0.0 -0.0 -1e-06 
